HIERARCHY
ROOT mixamorig1:Hips
{
	OFFSET -0.000023 99.754364 3.007850
	CHANNELS 6 Xposition Yposition Zposition Xrotation Yrotation Zrotation
	JOINT mixamorig1:Spine
	{
		OFFSET 0.000000 9.717224 -1.180211
		CHANNELS 3 Xrotation Yrotation Zrotation
		JOINT mixamorig1:Spine1
		{
			OFFSET 0.000000 11.336823 -1.376936
			CHANNELS 3 Xrotation Yrotation Zrotation
			JOINT mixamorig1:Spine2
			{
				OFFSET 0.000000 12.956345 -1.573657
				CHANNELS 3 Xrotation Yrotation Zrotation
				JOINT mixamorig1:Neck
				{
					OFFSET 0.000000 14.575974 -1.770441
					CHANNELS 3 Xrotation Yrotation Zrotation
					JOINT mixamorig1:Head
					{
						OFFSET 0.000000 6.720200 1.972157
						CHANNELS 3 Xrotation Yrotation Zrotation
						JOINT mixamorig1:HeadTop_End
						{
							OFFSET 0.000000 20.999847 6.162758
							CHANNELS 3 Xrotation Yrotation Zrotation
							End Site
							{
								OFFSET 0.000000 21.885452 -0.000004
							}
						}
					}
				}
				JOINT mixamorig1:LeftShoulder
				{
					OFFSET 6.140116 12.877853 -1.799548
					CHANNELS 3 Xrotation Yrotation Zrotation
					JOINT mixamorig1:LeftArm
					{
						OFFSET 12.545031 -3.431427 -0.058010
						CHANNELS 3 Xrotation Yrotation Zrotation
						JOINT mixamorig1:LeftForeArm
						{
							OFFSET 25.447281 -1.876373 -1.505625
							CHANNELS 3 Xrotation Yrotation Zrotation
							JOINT mixamorig1:LeftHand
							{
								OFFSET 23.367504 0.877640 0.971305
								CHANNELS 3 Xrotation Yrotation Zrotation
								JOINT mixamorig1:LeftHandThumb1
								{
									OFFSET 3.575478 -1.761887 3.039434
									CHANNELS 3 Xrotation Yrotation Zrotation
									JOINT mixamorig1:LeftHandThumb2
									{
										OFFSET 2.860405 -1.409454 2.431552
										CHANNELS 3 Xrotation Yrotation Zrotation
										JOINT mixamorig1:LeftHandThumb3
										{
											OFFSET 2.578941 -1.801514 1.750709
											CHANNELS 3 Xrotation Yrotation Zrotation
											JOINT mixamorig1:LeftHandThumb4
											{
												OFFSET 2.408989 -1.461151 1.064221
												CHANNELS 3 Xrotation Yrotation Zrotation
												End Site
												{
													OFFSET 2.176476 -1.503357 1.440013
												}
											}
										}
									}
								}
								JOINT mixamorig1:LeftHandIndex1
								{
									OFFSET 11.357018 -1.306473 4.439679
									CHANNELS 3 Xrotation Yrotation Zrotation
									JOINT mixamorig1:LeftHandIndex2
									{
										OFFSET 3.215240 -0.390930 0.624045
										CHANNELS 3 Xrotation Yrotation Zrotation
										JOINT mixamorig1:LeftHandIndex3
										{
											OFFSET 2.938980 -0.735489 0.560646
											CHANNELS 3 Xrotation Yrotation Zrotation
											JOINT mixamorig1:LeftHandIndex4
											{
												OFFSET 2.552437 -0.779205 0.483288
												CHANNELS 3 Xrotation Yrotation Zrotation
												End Site
												{
													OFFSET 2.555870 -0.777603 0.467434
												}
											}
										}
									}
								}
								JOINT mixamorig1:LeftHandMiddle1
								{
									OFFSET 12.195602 -0.657242 2.108765
									CHANNELS 3 Xrotation Yrotation Zrotation
									JOINT mixamorig1:LeftHandMiddle2
									{
										OFFSET 3.379944 -0.547394 0.236206
										CHANNELS 3 Xrotation Yrotation Zrotation
										JOINT mixamorig1:LeftHandMiddle3
										{
											OFFSET 3.043900 -0.829651 0.195068
											CHANNELS 3 Xrotation Yrotation Zrotation
											JOINT mixamorig1:LeftHandMiddle4
											{
												OFFSET 2.806625 -0.600723 0.188473
												CHANNELS 3 Xrotation Yrotation Zrotation
												End Site
												{
													OFFSET 2.806618 -0.600739 0.188510
												}
											}
										}
									}
								}
								JOINT mixamorig1:LeftHandRing1
								{
									OFFSET 12.563576 -0.458878 -0.154891
									CHANNELS 3 Xrotation Yrotation Zrotation
									JOINT mixamorig1:LeftHandRing2
									{
										OFFSET 2.596565 -0.829819 0.032336
										CHANNELS 3 Xrotation Yrotation Zrotation
										JOINT mixamorig1:LeftHandRing3
										{
											OFFSET 2.548286 -0.608398 0.044838
											CHANNELS 3 Xrotation Yrotation Zrotation
											JOINT mixamorig1:LeftHandRing4
											{
												OFFSET 2.167870 -0.507812 0.038965
												CHANNELS 3 Xrotation Yrotation Zrotation
												End Site
												{
													OFFSET 2.167732 -0.508163 0.042114
												}
											}
										}
									}
								}
								JOINT mixamorig1:LeftHandPinky1
								{
									OFFSET 11.341652 -0.310532 -2.253323
									CHANNELS 3 Xrotation Yrotation Zrotation
									JOINT mixamorig1:LeftHandPinky2
									{
										OFFSET 2.648827 -0.669128 -0.120024
										CHANNELS 3 Xrotation Yrotation Zrotation
										JOINT mixamorig1:LeftHandPinky3
										{
											OFFSET 2.075249 -0.703857 -0.105192
											CHANNELS 3 Xrotation Yrotation Zrotation
											JOINT mixamorig1:LeftHandPinky4
											{
												OFFSET 1.850784 -0.684036 -0.097376
												CHANNELS 3 Xrotation Yrotation Zrotation
												End Site
												{
													OFFSET 1.850731 -0.683411 -0.102854
												}
											}
										}
									}
								}
							}
						}
					}
				}
				JOINT mixamorig1:RightShoulder
				{
					OFFSET -6.140133 12.877823 -1.741391
					CHANNELS 3 Xrotation Yrotation Zrotation
					JOINT mixamorig1:RightArm
					{
						OFFSET -12.545002 -3.431366 0.058123
						CHANNELS 3 Xrotation Yrotation Zrotation
						JOINT mixamorig1:RightForeArm
						{
							OFFSET -25.447330 -1.876465 -1.671036
							CHANNELS 3 Xrotation Yrotation Zrotation
							JOINT mixamorig1:RightHand
							{
								OFFSET -23.367435 0.877640 0.912149
								CHANNELS 3 Xrotation Yrotation Zrotation
								JOINT mixamorig1:RightHandThumb1
								{
									OFFSET -3.655281 -1.787811 3.110017
									CHANNELS 3 Xrotation Yrotation Zrotation
									JOINT mixamorig1:RightHandThumb2
									{
										OFFSET -2.924309 -1.430252 2.488113
										CHANNELS 3 Xrotation Yrotation Zrotation
										JOINT mixamorig1:RightHandThumb3
										{
											OFFSET -2.528549 -1.776962 1.706924
											CHANNELS 3 Xrotation Yrotation Zrotation
											JOINT mixamorig1:RightHandThumb4
											{
												OFFSET -2.443375 -1.162323 1.073468
												CHANNELS 3 Xrotation Yrotation Zrotation
												End Site
												{
													OFFSET -2.204521 -1.202744 1.472025
												}
											}
										}
									}
								}
								JOINT mixamorig1:RightHandIndex1
								{
									OFFSET -11.888382 -1.247833 4.755188
									CHANNELS 3 Xrotation Yrotation Zrotation
									JOINT mixamorig1:RightHandIndex2
									{
										OFFSET -3.042244 -0.516434 0.442817
										CHANNELS 3 Xrotation Yrotation Zrotation
										JOINT mixamorig1:RightHandIndex3
										{
											OFFSET -2.738869 -0.708374 0.392164
											CHANNELS 3 Xrotation Yrotation Zrotation
											JOINT mixamorig1:RightHandIndex4
											{
												OFFSET -2.432571 -0.620773 0.348507
												CHANNELS 3 Xrotation Yrotation Zrotation
												End Site
												{
													OFFSET -2.433441 -0.620270 0.343348
												}
											}
										}
									}
								}
								JOINT mixamorig1:RightHandMiddle1
								{
									OFFSET -12.008347 -0.748550 2.098396
									CHANNELS 3 Xrotation Yrotation Zrotation
									JOINT mixamorig1:RightHandMiddle2
									{
										OFFSET -3.442291 -0.415817 0.287318
										CHANNELS 3 Xrotation Yrotation Zrotation
										JOINT mixamorig1:RightHandMiddle3
										{
											OFFSET -3.106178 -0.837677 0.240102
											CHANNELS 3 Xrotation Yrotation Zrotation
											JOINT mixamorig1:RightHandMiddle4
											{
												OFFSET -2.855728 -0.604996 0.227592
												CHANNELS 3 Xrotation Yrotation Zrotation
												End Site
												{
													OFFSET -2.855972 -0.604736 0.225131
												}
											}
										}
									}
								}
								JOINT mixamorig1:RightHandRing1
								{
									OFFSET -12.328026 -0.608994 -0.015787
									CHANNELS 3 Xrotation Yrotation Zrotation
									JOINT mixamorig1:RightHandRing2
									{
										OFFSET -2.763496 -0.569153 -0.029507
										CHANNELS 3 Xrotation Yrotation Zrotation
										JOINT mixamorig1:RightHandRing3
										{
											OFFSET -2.573975 -0.772354 -0.042469
											CHANNELS 3 Xrotation Yrotation Zrotation
											JOINT mixamorig1:RightHandRing4
											{
												OFFSET -2.323860 -0.456833 -0.023427
												CHANNELS 3 Xrotation Yrotation Zrotation
												End Site
												{
													OFFSET -2.323814 -0.457275 -0.019363
												}
											}
										}
									}
								}
								JOINT mixamorig1:RightHandPinky1
								{
									OFFSET -11.463135 -0.329407 -2.202621
									CHANNELS 3 Xrotation Yrotation Zrotation
									JOINT mixamorig1:RightHandPinky2
									{
										OFFSET -2.569016 -0.599854 -0.108848
										CHANNELS 3 Xrotation Yrotation Zrotation
										JOINT mixamorig1:RightHandPinky3
										{
											OFFSET -2.016190 -0.737000 -0.102787
											CHANNELS 3 Xrotation Yrotation Zrotation
											JOINT mixamorig1:RightHandPinky4
											{
												OFFSET -1.796242 -0.576553 -0.085258
												CHANNELS 3 Xrotation Yrotation Zrotation
												End Site
												{
													OFFSET -1.796211 -0.576279 -0.087722
												}
											}
										}
									}
								}
							}
						}
					}
				}
			}
		}
	}
	JOINT mixamorig1:LeftUpLeg
	{
		OFFSET 8.078197 -5.402374 -0.535866
		CHANNELS 3 Xrotation Yrotation Zrotation
		JOINT mixamorig1:LeftLeg
		{
			OFFSET 3.743073 -42.540520 -2.695453
			CHANNELS 3 Xrotation Yrotation Zrotation
			JOINT mixamorig1:LeftFoot
			{
				OFFSET 3.359008 -41.940849 -2.882240
				CHANNELS 3 Xrotation Yrotation Zrotation
				JOINT mixamorig1:LeftToeBase
				{
					OFFSET 1.133368 -9.116436 13.321875
					CHANNELS 3 Xrotation Yrotation Zrotation
					JOINT mixamorig1:LeftToe_End
					{
						OFFSET 0.591574 -0.054443 6.177378
						CHANNELS 3 Xrotation Yrotation Zrotation
						End Site
						{
							OFFSET 0.591574 -0.054443 6.177376
						}
					}
				}
			}
		}
	}
	JOINT mixamorig1:RightUpLeg
	{
		OFFSET -8.078202 -5.402405 -0.751774
		CHANNELS 3 Xrotation Yrotation Zrotation
		JOINT mixamorig1:RightLeg
		{
			OFFSET -3.743069 -42.540482 -2.464511
			CHANNELS 3 Xrotation Yrotation Zrotation
			JOINT mixamorig1:RightFoot
			{
				OFFSET -3.359002 -41.940781 -2.968969
				CHANNELS 3 Xrotation Yrotation Zrotation
				JOINT mixamorig1:RightToeBase
				{
					OFFSET -1.133408 -9.116797 13.416489
					CHANNELS 3 Xrotation Yrotation Zrotation
					JOINT mixamorig1:RightToe_End
					{
						OFFSET -0.591589 -0.054615 6.151403
						CHANNELS 3 Xrotation Yrotation Zrotation
						End Site
						{
							OFFSET -0.591589 -0.054615 6.151402
						}
					}
				}
			}
		}
	}
}
MOTION
Frames: 6
Frame Time: 0.041667
-0.789014 92.837326 -3.828074 17.345043 9.243677 -1.430534 6.738850 -7.452413 -0.442049 4.675616 -3.636584 -0.354063 4.729271 -3.557175 -0.499321 -4.157318 0.323984 1.089830 -4.147772 0.368803 1.121058 0.000012 -0.000000 -0.000001 0.322871 -18.783328 -10.565535 -37.617875 -24.277363 -48.002276 -7.857824 -61.639889 -10.979476 -31.583679 -30.143964 34.739049 6.903148 3.659708 -3.061791 -0.263795 17.487888 15.821341 -12.097672 5.042262 10.477865 -0.000003 0.000011 0.000008 20.854355 5.445831 -79.391216 16.183688 6.791035 -51.052812 14.251364 5.805124 -44.303414 0.000001 0.000001 -0.000001 14.579566 7.048912 -77.773616 11.707587 9.374014 -52.976645 10.420824 7.862397 -51.139139 -0.000000 -0.000002 -0.000004 11.545511 7.489804 -68.516244 12.353991 10.024625 -64.532993 8.101717 9.481858 -47.193028 -0.000001 0.000003 0.000003 20.207941 16.918939 -89.556081 8.584450 12.228513 -55.762276 6.539237 10.254612 -46.526272 0.000004 0.000000 0.000002 1.209882 20.954261 5.509459 10.594112 -2.243732 56.361311 -1.367629 16.928875 6.547353 1.831538 -26.202554 -3.123024 5.359664 2.729912 2.198591 -0.325148 -19.236632 -16.537152 -8.734034 -3.322005 -4.296767 -0.000009 -0.000004 0.000002 16.827805 -3.093759 76.083506 13.632772 -5.435086 53.763585 11.887814 -4.745310 47.981481 0.000003 -0.000009 0.000004 13.109744 -4.236153 80.093974 10.292388 -7.464270 51.026960 9.660597 -5.941591 51.286808 0.000010 0.000011 0.000004 12.870952 -4.360869 78.884887 7.726326 -9.653257 55.360975 6.223072 -8.325439 52.858144 0.000001 0.000007 0.000012 16.877848 -13.936286 82.096483 6.712111 -10.397914 53.585819 5.520371 -8.894614 50.629559 0.000008 0.000001 -0.000004 -18.201952 7.795363 -7.187492 31.973140 12.454576 -1.090673 -27.087386 -5.115565 1.612297 -10.748558 0.000019 -0.000001 0.000001 0.000000 0.000003 -69.187392 -10.509269 0.245016 119.874751 -10.880269 6.744121 26.536473 -3.455800 -17.517688 0.330300 -0.000000 0.000005 0.000000 0.000001 0.000001 
-0.437798 93.042229 -3.856954 16.292807 3.458051 -9.471789 9.011728 -8.609807 7.857456 5.350721 -4.121118 1.241517 5.393634 -4.162939 0.953938 -3.688213 1.943640 1.333006 -3.668612 2.002950 1.290015 -0.000000 0.000000 -0.000000 1.571223 -18.450607 1.974517 -51.378090 -14.968836 -45.890562 -28.969219 -81.400849 -31.308050 -26.064470 -32.995633 34.536790 6.903158 3.659702 -3.061786 -0.263786 17.487902 15.821334 -12.097682 5.042268 10.477868 -0.000015 0.000009 0.000009 20.854331 5.445822 -79.391223 16.183684 6.791036 -51.052816 14.251363 5.805121 -44.303414 0.000004 -0.000002 0.000001 14.579604 7.048920 -77.773595 11.707581 9.374000 -52.976665 10.420818 7.862393 -51.139132 0.000002 -0.000005 -0.000006 11.545499 7.489798 -68.516230 12.353973 10.024640 -64.532973 8.101716 9.481856 -47.193032 0.000001 -0.000007 0.000002 20.207938 16.918956 -89.556074 8.584439 12.228515 -55.762265 6.539253 10.254605 -46.526286 0.000006 0.000005 0.000014 2.428535 23.291915 -1.997788 32.022136 -3.102958 54.262615 -3.554350 39.462227 7.594787 -10.131114 -22.713038 1.540312 5.359661 2.729911 2.198578 -0.325165 -19.236632 -16.537150 -8.734044 -3.321999 -4.296773 -0.000009 -0.000015 0.000001 16.827735 -3.093752 76.083506 13.632772 -5.435082 53.763575 11.887830 -4.745318 47.981468 0.000004 0.000001 0.000002 13.109664 -4.236129 80.093961 10.292390 -7.464266 51.026953 9.660602 -5.941592 51.286798 -0.000003 0.000008 0.000002 12.870893 -4.360854 78.884880 7.726333 -9.653249 55.360971 6.223058 -8.325426 52.858148 0.000002 0.000004 0.000005 16.877845 -13.936288 82.096476 6.712117 -10.397899 53.585815 5.520361 -8.894607 50.629559 -0.000001 0.000001 -0.000002 -1.383021 14.647069 3.837902 16.801635 10.972165 -0.532919 -14.199501 -3.701657 -4.165054 -25.375181 0.000051 -0.000007 0.000000 -0.000002 0.000002 -78.523079 -11.519048 14.350989 104.283841 -12.828813 5.015081 17.161745 -7.125892 -21.493229 0.748242 0.000004 0.000002 0.000002 0.000006 0.000001 
-0.056213 92.267700 -4.331670 17.452866 -2.316697 -15.149674 9.898952 -9.683480 14.848020 5.431608 -4.482946 2.273985 5.440568 -4.676148 1.881395 -1.769223 3.542059 0.684208 -1.752803 3.563071 0.553696 0.000002 0.000000 -0.000000 -0.108176 -15.357617 1.579412 -51.573526 -13.580793 -30.607874 20.707720 -101.622273 19.051696 -25.855850 -22.386409 37.503674 6.903162 3.659689 -3.061787 -0.263807 17.487907 15.821351 -12.097674 5.042269 10.477875 -0.000021 -0.000001 0.000001 20.854338 5.445837 -79.391202 16.183677 6.791030 -51.052826 14.251374 5.805129 -44.303424 0.000003 0.000001 -0.000001 14.579556 7.048919 -77.773616 11.707602 9.374009 -52.976658 10.420815 7.862390 -51.139149 0.000003 0.000003 0.000000 11.545519 7.489806 -68.516237 12.353984 10.024623 -64.532973 8.101719 9.481862 -47.193028 0.000008 -0.000005 -0.000004 20.207917 16.918945 -89.556068 8.584440 12.228516 -55.762265 6.539252 10.254616 -46.526268 0.000001 0.000009 0.000009 2.065714 28.936069 -3.518267 45.045378 -14.543433 51.737484 -6.006972 54.544484 9.400313 -20.958273 -16.677520 -2.421101 5.359673 2.729906 2.198584 -0.325137 -19.236634 -16.537152 -8.734039 -3.321998 -4.296772 0.000001 -0.000006 0.000002 16.827785 -3.093754 76.083519 13.632780 -5.435078 53.763564 11.887822 -4.745311 47.981468 0.000014 0.000003 0.000010 13.109749 -4.236139 80.093967 10.292387 -7.464269 51.026970 9.660603 -5.941592 51.286811 -0.000001 -0.000001 0.000004 12.870888 -4.360857 78.884880 7.726319 -9.653246 55.360968 6.223069 -8.325415 52.858154 -0.000001 -0.000005 -0.000007 16.877824 -13.936288 82.096470 6.712119 -10.397911 53.585781 5.520363 -8.894598 50.629552 -0.000003 -0.000009 0.000003 6.688949 17.390169 8.689782 9.360535 10.670427 -0.545641 19.025909 0.040906 -1.782974 -47.897364 2.494269 -5.696251 -0.000003 0.000001 0.000006 -84.395812 -11.582248 25.064552 81.812020 -11.239992 3.125504 9.267634 -5.133010 -19.529048 0.209621 0.000003 0.000003 -0.000003 0.000003 0.000001 
0.570666 93.941200 -2.765508 19.128039 -4.786092 -10.246874 8.349710 -9.365591 11.651158 4.657814 -3.840977 2.131028 4.664276 -4.007292 1.838346 -1.232727 3.538011 0.906281 -1.220934 3.558976 0.796501 0.000004 -0.000006 0.000001 0.334662 -14.724689 1.393123 -37.364936 -12.799555 -27.682101 13.427144 -107.347447 11.996779 -30.954376 -10.990023 32.882812 6.903157 3.659697 -3.061784 -0.263801 17.487890 15.821348 -12.097682 5.042267 10.477865 -0.000004 0.000002 -0.000001 20.854349 5.445828 -79.391223 16.183689 6.791033 -51.052812 14.251375 5.805119 -44.303421 0.000000 -0.000005 -0.000007 14.579546 7.048927 -77.773595 11.707575 9.374006 -52.976658 10.420817 7.862388 -51.139129 0.000002 -0.000007 -0.000002 11.545499 7.489784 -68.516250 12.353984 10.024628 -64.532980 8.101707 9.481855 -47.193014 0.000005 -0.000003 -0.000009 20.207927 16.918939 -89.556088 8.584441 12.228517 -55.762265 6.539243 10.254620 -46.526272 0.000004 -0.000005 0.000012 2.530089 29.852066 -3.372241 42.881563 -22.163747 56.668734 -5.575997 52.480196 9.054323 -28.333021 -7.304740 -12.406294 5.359661 2.729903 2.198581 -0.325163 -19.236640 -16.537158 -8.734042 -3.321999 -4.296772 0.000006 -0.000009 0.000016 16.827817 -3.093749 76.083519 13.632801 -5.435079 53.763581 11.887817 -4.745311 47.981474 0.000009 -0.000003 -0.000007 13.109748 -4.236136 80.093981 10.292408 -7.464274 51.026967 9.660603 -5.941595 51.286818 0.000000 -0.000002 -0.000005 12.870938 -4.360858 78.884880 7.726328 -9.653241 55.360958 6.223050 -8.325417 52.858151 0.000002 0.000003 -0.000007 16.877853 -13.936274 82.096470 6.712128 -10.397910 53.585802 5.520367 -8.894613 50.629556 -0.000004 -0.000014 -0.000005 10.113885 12.865079 0.159565 19.607731 11.499175 -0.366323 35.074937 6.761466 1.569075 4.591475 -0.000012 -0.000006 0.000001 0.000001 0.000008 -77.357712 -6.260532 24.640222 53.961472 -5.094940 1.336860 6.161188 0.141678 -13.576242 -0.238101 0.000003 -0.000002 0.000000 0.000001 -0.000003 
1.455028 94.497986 -0.805771 17.861274 -5.143800 -4.149967 8.930732 -7.364163 6.611411 4.642067 -2.378997 1.620415 4.688056 -2.432158 1.445081 -3.477035 2.311038 2.683383 -3.462517 2.382301 2.635466 -0.000002 0.000002 0.000000 1.523588 -15.637460 0.644042 -21.433972 -18.599495 -37.874710 -66.430830 -85.440769 -68.558154 -41.392528 -19.547979 20.071049 6.903165 3.659699 -3.061788 -0.263793 17.487893 15.821353 -12.097683 5.042271 10.477866 -0.000012 0.000000 0.000007 20.854349 5.445833 -79.391223 16.183686 6.791042 -51.052792 14.251360 5.805113 -44.303435 0.000000 -0.000003 -0.000008 14.579592 7.048913 -77.773622 11.707583 9.374003 -52.976662 10.420818 7.862385 -51.139136 -0.000000 0.000001 0.000004 11.545510 7.489804 -68.516223 12.353984 10.024625 -64.532986 8.101720 9.481858 -47.193028 0.000003 0.000001 0.000005 20.207943 16.918956 -89.556081 8.584445 12.228508 -55.762276 6.539256 10.254606 -46.526275 0.000004 -0.000004 0.000012 2.249757 26.747140 1.091589 35.053405 -21.191963 58.521191 -4.864036 48.585512 8.505436 -33.959704 6.857249 -16.094009 5.359667 2.729915 2.198598 -0.325144 -19.236639 -16.537155 -8.734042 -3.321991 -4.296758 -0.000002 -0.000017 0.000005 16.827786 -3.093760 76.083506 13.632785 -5.435076 53.763585 11.887813 -4.745316 47.981474 0.000002 -0.000000 -0.000003 13.109748 -4.236140 80.093967 10.292400 -7.464273 51.026950 9.660585 -5.941597 51.286822 -0.000002 0.000000 0.000000 12.870931 -4.360869 78.884894 7.726330 -9.653253 55.360968 6.223070 -8.325422 52.858141 0.000001 -0.000001 -0.000006 16.877881 -13.936285 82.096511 6.712128 -10.397902 53.585809 5.520357 -8.894609 50.629559 -0.000002 -0.000006 0.000011 3.194885 13.181225 -6.364214 52.389641 13.604337 -1.523994 38.180208 7.293165 -1.321549 5.936447 -0.000023 0.000018 -0.000006 0.000001 0.000004 -60.515476 -4.728540 19.106631 30.085231 1.755405 0.455764 11.366358 -0.406613 -7.302095 -2.693495 -0.000007 0.000009 0.000000 0.000001 -0.000001 
1.797938 94.527672 1.065167 16.070199 -5.938841 -0.752020 9.603615 -4.908681 3.831683 4.877415 -2.141421 1.497627 4.911660 -2.134964 1.412574 -5.141169 1.790662 3.074403 -5.115162 1.887625 3.062654 0.000004 -0.000002 -0.000000 0.864871 -15.300752 -7.093151 -12.650313 -23.227515 -47.666084 -5.029027 -49.761873 -8.636993 -46.405705 -18.574565 13.795368 6.903167 3.659696 -3.061789 -0.263801 17.487902 15.821337 -12.097676 5.042270 10.477868 -0.000009 0.000003 0.000005 20.854328 5.445820 -79.391216 16.183689 6.791034 -51.052819 14.251366 5.805127 -44.303421 0.000001 -0.000004 0.000001 14.579592 7.048922 -77.773602 11.707592 9.374005 -52.976641 10.420817 7.862396 -51.139139 0.000000 -0.000004 -0.000010 11.545488 7.489795 -68.516237 12.353998 10.024621 -64.532993 8.101713 9.481865 -47.193018 0.000002 0.000005 0.000011 20.207943 16.918940 -89.556088 8.584436 12.228516 -55.762262 6.539218 10.254612 -46.526272 0.000005 0.000005 0.000008 0.638854 24.994311 8.865293 25.297148 -10.725843 53.201966 -4.934588 49.001256 8.558394 -36.479661 22.897711 -15.301673 5.359670 2.729907 2.198580 -0.325154 -19.236628 -16.537145 -8.734030 -3.321994 -4.296765 0.000002 -0.000014 0.000003 16.827771 -3.093755 76.083492 13.632784 -5.435072 53.763595 11.887816 -4.745317 47.981457 0.000007 -0.000001 0.000003 13.109779 -4.236152 80.093961 10.292396 -7.464272 51.026953 9.660597 -5.941592 51.286815 -0.000000 0.000006 0.000002 12.870924 -4.360867 78.884874 7.726327 -9.653250 55.360961 6.223074 -8.325423 52.858137 0.000001 0.000004 0.000001 16.877848 -13.936284 82.096476 6.712115 -10.397905 53.585819 5.520367 -8.894609 50.629566 0.000004 0.000000 -0.000002 -8.118586 18.035060 -5.182431 84.776212 14.507564 -3.624206 40.742150 10.051967 -1.423976 3.674603 -0.000010 0.000002 -0.000007 -0.000001 0.000005 -46.220211 -7.425674 14.122745 24.303548 2.668471 0.310429 9.125537 -0.277339 -8.232834 -1.288731 0.003029 -0.364271 0.000000 0.000006 -0.000000 
